{
	"asset":{
		"version":"2.0",
		"generator":"Created using the official Cinema 4D glTF Exporter 1.000x284978"
	},
	"scenes":[{
		"nodes":[0]
	}],
	"nodes":[{
		"translation":[0.0,
		0.0,
		0.0],
		"name":"Null",
		"rotation":[0.0,
		-0.02094241976737976,
		0.0,
		0.9997806549072266],
		"scale":[1.0,
		1.0,
		1.0],
		"children":[1,
		3]
	},
	{
		"translation":[0.0,
		0.0,
		0.0],
		"name":"Subdivision Surface",
		"rotation":[1.9503346160298919e-10,
		-0.026176948100328447,
		-7.4480275280564e-9,
		0.9996573328971863],
		"scale":[1.0,
		1.0,
		1.0],
		"children":[2]
	},
	{
		"translation":[0.0,
		0.0,
		0.0],
		"name":"device",
		"rotation":[1.9503346160298919e-10,
		-0.026176948100328447,
		7.4480275280564e-9,
		-0.9996573328971863],
		"scale":[1.0,
		1.0,
		1.0],
		"mesh":0
	},
	{
		"translation":[0.0,
		-14.064010620117188,
		24.786760330200197],
		"name":"Sphere",
		"rotation":[-0.06878012418746948,
		0.0,
		0.0,
		-0.997631847858429],
		"scale":[1.0,
		1.0,
		1.0],
		"mesh":1
	}],
	"meshes":[{
		"name":"device",
		"primitives":[{
			"attributes":{
				"POSITION":3,
				"NORMAL":4,
				"TEXCOORD_0":5
			},
			"indices":2,
			"material":0
		}]
	},
	{
		"name":"Sphere",
		"primitives":[{
			"attributes":{
				"POSITION":7,
				"NORMAL":8,
				"TEXCOORD_0":9
			},
			"indices":6,
			"material":1
		}]
	}],
	"accessors":[{
		"bufferView":0,
		"type":"SCALAR",
		"componentType":5126,
		"byteOffset":0,
		"count":5,
		"min":[0.0],
		"max":[6.25]
	},
	{
		"bufferView":0,
		"type":"VEC4",
		"componentType":5126,
		"byteOffset":20,
		"count":5,
		"min":[0.0,
		-1.0,
		0.0,
		-1.0],
		"max":[0.0,
		0.0,
		0.0,
		1.0]
	},
	{
		"bufferView":1,
		"type":"SCALAR",
		"componentType":5123,
		"byteOffset":0,
		"count":115584,
		"min":[0],
		"max":[19574]
	},
	{
		"bufferView":2,
		"type":"VEC3",
		"componentType":5126,
		"byteOffset":0,
		"count":19575,
		"min":[-26.453731536865236,
		-16.212326049804689,
		-26.21985626220703],
		"max":[26.45577049255371,
		17.362131118774415,
		25.728275299072267]
	},
	{
		"bufferView":2,
		"type":"VEC3",
		"componentType":5126,
		"byteOffset":12,
		"count":19575,
		"min":[-0.9998178482055664,
		-0.999998152256012,
		-0.9999969601631165],
		"max":[0.9998173713684082,
		0.9999703168869019,
		0.9997996091842651]
	},
	{
		"bufferView":2,
		"type":"VEC2",
		"componentType":5126,
		"byteOffset":24,
		"count":19575,
		"min":[0.0,
		0.0],
		"max":[1.0,
		1.0]
	},
	{
		"bufferView":3,
		"type":"SCALAR",
		"componentType":5123,
		"byteOffset":0,
		"count":672,
		"min":[0],
		"max":[150]
	},
	{
		"bufferView":4,
		"type":"VEC3",
		"componentType":5126,
		"byteOffset":0,
		"count":151,
		"min":[-2.0,
		-2.0,
		-2.0],
		"max":[2.0,
		2.0,
		2.0]
	},
	{
		"bufferView":4,
		"type":"VEC3",
		"componentType":5126,
		"byteOffset":12,
		"count":151,
		"min":[-1.0,
		-1.0,
		-1.0],
		"max":[1.0,
		1.0,
		1.0]
	},
	{
		"bufferView":4,
		"type":"VEC2",
		"componentType":5126,
		"byteOffset":24,
		"count":151,
		"min":[0.0,
		0.0],
		"max":[1.0,
		1.0]
	}],
	"bufferViews":[{
		"buffer":0,
		"byteOffset":0,
		"byteLength":100
	},
	{
		"buffer":1,
		"byteOffset":0,
		"byteLength":231168,
		"target":34963
	},
	{
		"buffer":1,
		"byteOffset":231168,
		"byteLength":626400,
		"target":34962,
		"byteStride":32
	},
	{
		"buffer":2,
		"byteOffset":0,
		"byteLength":1344,
		"target":34963
	},
	{
		"buffer":2,
		"byteOffset":1344,
		"byteLength":4832,
		"target":34962,
		"byteStride":32
	}],
	"buffers":[{
		"uri":"data:application/octet-stream;base64,",
		"byteLength":100
	},
	{
		"uri":"data:application/octet-stream;base64,",
		"byteLength":857568
	},
	{
		"uri":"data:application/octet-stream;base64,",
		"byteLength":6176
	}],
	"materials":[{
		"pbrMetallicRoughness":{
			"baseColorFactor":[0.9450876798561151,
			0.9450876798561151,
			0.9450876798561151,
			1.0],
			"metallicFactor":0.5700000000000001,
			"roughnessFactor":0.19
		},
		"emissiveFactor":[0.0,
		0.0,
		0.0],
		"alphaMode":"OPAQUE",
		"name":"Mat",
		"doubleSided":true
	},
	{
		"pbrMetallicRoughness":{
			"baseColorFactor":[0.84,
			0.5124,
			0.6488999999999998,
			1.0],
			"metallicFactor":0.58,
			"roughnessFactor":0.16
		},
		"emissiveFactor":[0.0,
		0.0,
		0.0],
		"alphaMode":"OPAQUE",
		"name":"Mat.1",
		"doubleSided":true
	}],
	"animations":[{
		"samplers":[{
			"input":0,
			"interpolation":"LINEAR",
			"output":1
		}],
		"channels":[{
			"sampler":0,
			"target":{
				"node":0,
				"path":"rotation"
			}
		}]
	}]
}